<?xml version="1.0" encoding="UTF-8"?>
<!DOCTYPE svg PUBLIC "-//W3C//DTD SVG 1.1//EN" "http://www.w3.org/Graphics/SVG/1.1/DTD/svg11.dtd">
<svg version="1.1" xmlns="http://www.w3.org/2000/svg" xmlns:xlink="http://www.w3.org/1999/xlink" x="0px" y="0px"
     width="122.25px" height="26.732px" viewBox="0 0 122.25 26.732" enable-background="new 0 0 122.25 26.732"
     xml:space="preserve">
    <path d="M72.572,20.229c-1.836-2.481-3.307-5.333-2.881-10.08c2.223,4.447,0.188,11.449,7.92,10.802
	c1.037-0.089,1.354-0.688,2.881-0.722c-0.84,1.34-3.455,1.088-2.52,3.24c-2.945,2.279-7.371,0.385-9.361-1.439
	c1.408,0.179,5.484,2.058,7.92,0.359c-4.393,0.438-9.211-1.178-10.08-5.399c-1.078,0.237,0.346,0.77,0,1.44
	c-1.482-2.117-1.939-5.26-1.799-9c0.236-1.709,1.326,1.077,2.16,1.079c0.967-0.474,0.719-2.161,2.16-2.159
	c-0.156-0.565-1.134-0.309-0.722-1.439c-1.08,0-2.16,0-3.239,0c2.754-2.855,10.102-2.327,15.12-1.801
	c1.15-0.243,0.679-1.196,1.08-1.439c1.447,0.248,2.056-0.345,3.238-0.36c-0.953,2.012,0.428,4.053-1.8,5.76
	c-4.922-0.873-10.36-1.354-13.68-0.358C68.604,14.118,69.369,18.391,72.572,20.229z M80.492,7.27c-1.873-1.796-6.9-1.717-10.08-1.08
	c-0.473-0.048-2.605-0.055-1.439,0.359c2.879,0,5.76,0,8.639,0c1.265,0.417,1.943,1.417,3.603,1.438
	c0.431-0.785,2.201-2.093,1.438-2.879C82.084,5.981,81.363,6.702,80.492,7.27z"/>
    <g>
        <path d="M55.64,16.395c0.999,1.642,2.927,2.354,2.88,5.041c-6.339,1.82-16.6-0.281-23.04,1.439c1.16-1.48,3.668-1.611,5.4-2.521
		c0-0.772,9.783,0.604,13.005-0.124c0.277-0.062-0.195-1.876-0.765-2.757c-2.201-3.396-6.583-5.588-10.08-7.92
		c1.535,2.373,5.683,4.18,8.28,6.84c0.359,0.369,2.199,2.478,0.36,1.08c-3.571-3.269-7.577-6.103-11.52-9
		c0.502-1.082,1.863,0.749,2.52-0.358c-0.28-1.16-1.627-1.254-2.52-1.802c-0.564-1.584,1.224-1.604,2.52-1.799
		c3.781-0.566,10.644,0.189,14.04,0.359c1.467-0.693,2.451-1.869,4.681-1.8c-0.961,1.994,0.527,4.435-2.161,5.76
		c-4.932-1.333-9.262-1.016-13.68-0.72c3.165,2.232,7.389,4.901,10.44,7.92c0.68,0.672,2.748,1.571,1.8,2.52
		C57.232,17.684,56.512,16.963,55.64,16.395z M57.8,7.035c-3.245-2.242-11.94-1.752-16.2-0.722c5.705,0.296,12.945-0.943,16.56,1.44
		c0.431-0.786,2.203-2.093,1.44-2.88C59.099,5.694,58.354,6.27,57.8,7.035z"/>
        <path d="M58.52,19.276c0.845-0.469,1.741,2.086,1.44,3.959c-5.145,1.88-16.259,1.416-21.96,0.361
		c5.356-2.086,15.51,0.629,20.88-1.441C59.24,21.221,59.513,19.745,58.52,19.276z"/>
    </g>
    <line fill="none" stroke="#000000" stroke-width="2" stroke-miterlimit="10" x1="32" y1="13.367" x2="1.5" y2="13.367"/>
    <line fill="none" stroke="#000000" stroke-width="2" stroke-miterlimit="10" x1="119" y1="13.367" x2="88.5" y2="13.367"/>
</svg>
